<svg xmlns="http://www.w3.org/2000/svg" viewBox="0 0 640 640" role="img"><title>Original Glowwise haircare illustration</title><defs><radialGradient id="light" cx="30%" cy="25%"><stop stop-color="#fffdf8"/><stop offset=".6" stop-color="#e5b798"/><stop offset="1" stop-color="#b88667"/></radialGradient><linearGradient id="teal" x2="1" y2="1"><stop stop-color="#4e7770"/><stop offset="1" stop-color="#123f3f"/></linearGradient><linearGradient id="cream" x2="1" y2="1"><stop stop-color="#fffdf8"/><stop offset="1" stop-color="#c5cdb9"/></linearGradient><filter id="shadow" x="-40%" y="-40%" width="180%" height="180%"><feGaussianBlur stdDeviation="16"/></filter></defs><ellipse cx="330" cy="520" rx="135" ry="20" fill="#123f3f" opacity=".13" filter="url(#shadow)"/><path d="M495 122q0 28-28 28q28 0 28 28q0-28 28-28q-28 0-28-28Z" fill="#123f3f"/><circle cx="120" cy="380" r="4" fill="#123f3f"/><path d="M130 460C130 240 540 175 490 335C450 465 190 360 230 235C263 134 400 173 375 284C350 399 100 389 180 485" fill="none" stroke="url(#teal)" stroke-width="42" stroke-linecap="round"/><path d="M132 448C150 247 523 193 480 326C431 467 180 335 243 229C300 147 395 203 363 286" fill="none" stroke="#ecded0" stroke-opacity=".45" stroke-width="3"/><ellipse cx="400" cy="450" rx="55" ry="43" fill="url(#light)"/></svg>
